#N canvas -8 -8 1920 997 10;
#X msg -145 -15 disconnect;
#X text -44 960 <-- convert message to raw bytes;
#X obj -117 438 change;
#X floatatom -117 466 5 0 127 1 - - -;
#X floatatom -117 521 8 0 0 2 - - -;
#X obj -117 493 / 127;
#X obj 42 438 change;
#X floatatom 42 466 5 0 127 1 - - -;
#X floatatom 42 521 8 0 0 2 - - -;
#X obj 42 493 / 127;
#X obj 193 438 change;
#X floatatom 193 466 5 0 127 1 - - -;
#X floatatom 193 521 8 0 0 2 - - -;
#X obj 193 493 / 127;
#X obj 380 438 change;
#X floatatom 380 466 5 0 127 1 - - -;
#X floatatom 380 521 8 0 0 2 - - -;
#X obj 380 493 / 127;
#X obj 559 438 change;
#X floatatom 559 466 5 0 127 1 - - -;
#X floatatom 559 521 8 0 0 2 - - -;
#X obj 559 493 / 127;
#X obj 729 438 change;
#X floatatom 729 466 5 0 127 1 - - -;
#X floatatom 729 521 8 0 0 2 - - -;
#X obj 729 493 / 127;
#X obj 919 438 change;
#X floatatom 919 466 5 0 127 1 - - -;
#X floatatom 919 521 8 0 0 2 - - -;
#X obj 919 493 / 127;
#X obj 1095 438 change;
#X floatatom 1095 466 5 0 127 1 - - -;
#X floatatom 1095 521 8 0 0 2 - - -;
#X obj 1095 493 / 127;
#X obj -117 410 ctlin 0;
#X obj 42 410 ctlin 1;
#X obj 193 410 ctlin 2;
#X obj 380 410 ctlin 3;
#X obj 559 410 ctlin 4;
#X obj 729 410 ctlin 5;
#X obj 919 410 ctlin 6;
#X obj 1095 410 ctlin 7;
#X obj -123 69 change;
#X floatatom -123 97 5 0 127 1 - - -;
#X floatatom -123 152 8 0 0 2 - - -;
#X obj -123 124 / 127;
#X obj 46 69 change;
#X floatatom 46 97 5 0 127 1 - - -;
#X floatatom 46 152 8 0 0 2 - - -;
#X obj 46 124 / 127;
#X obj 198 69 change;
#X floatatom 198 97 5 0 127 1 - - -;
#X floatatom 198 152 8 0 0 2 - - -;
#X obj 198 124 / 127;
#X obj 375 69 change;
#X floatatom 375 97 5 0 127 1 - - -;
#X floatatom 375 152 8 0 0 2 - - -;
#X obj 375 124 / 127;
#X obj 546 69 change;
#X floatatom 546 97 5 0 127 1 - - -;
#X floatatom 546 152 8 0 0 2 - - -;
#X obj 546 124 / 127;
#X obj 714 69 change;
#X floatatom 714 97 5 0 127 1 - - -;
#X floatatom 714 152 8 0 0 2 - - -;
#X obj 714 124 / 127;
#X obj 908 69 change;
#X floatatom 908 97 5 0 127 1 - - -;
#X floatatom 908 152 8 0 0 2 - - -;
#X obj 908 124 / 127;
#X obj 1094 69 change;
#X floatatom 1094 97 5 0 127 1 - - -;
#X floatatom 1094 152 8 0 0 2 - - -;
#X obj 1094 124 / 127;
#X obj -141 961 netsend -u -b;
#X obj -127 604 list prepend send;
#X obj -127 632 list trim;
#X obj -117 548 oscformat fader 1;
#X obj 12 576 list prepend send;
#X obj 9 632 list trim;
#X obj 12 548 oscformat fader 2;
#X obj 180 604 list prepend send;
#X obj 180 632 list trim;
#X obj 193 548 oscformat fader 3;
#X obj 379 604 list prepend send;
#X obj 379 632 list trim;
#X obj 558 604 list prepend send;
#X obj 558 632 list trim;
#X obj 727 604 list prepend send;
#X obj 727 632 list trim;
#X obj 916 604 list prepend send;
#X obj 916 632 list trim;
#X obj 1097 604 list prepend send;
#X obj 1097 632 list trim;
#X obj 380 548 oscformat fader 4;
#X obj 559 548 oscformat fader 5;
#X obj 729 548 oscformat fader 6;
#X obj 919 548 oscformat fader 7;
#X obj 1095 548 oscformat fader 8;
#X obj -121 230 list prepend send;
#X obj -124 289 list trim;
#X obj 17 230 list prepend send;
#X obj 14 289 list trim;
#X obj 185 230 list prepend send;
#X obj 183 289 list trim;
#X obj 384 230 list prepend send;
#X obj 382 289 list trim;
#X obj 564 230 list prepend send;
#X obj 561 289 list trim;
#X obj 733 230 list prepend send;
#X obj 730 289 list trim;
#X obj 922 230 list prepend send;
#X obj 919 289 list trim;
#X obj 1103 230 list prepend send;
#X obj 1100 289 list trim;
#X obj -121 202 oscformat pot 1;
#X obj 17 202 oscformat pot 2;
#X obj 185 202 oscformat pot 3;
#X obj 384 202 oscformat pot 4;
#X obj 564 202 oscformat pot 5;
#X obj 733 202 oscformat pot 6;
#X obj 922 202 oscformat pot 7;
#X obj 1103 202 oscformat pot 8;
#X msg -50 -15 connect 192.168.0.255 8000;
#X obj -50 -43 ctlin 58;
#X obj -145 -43 ctlin 59;
#X obj 400 911 list prepend send;
#X obj 400 939 list trim;
#X obj 400 883 oscformat /d3/showcontrol/previoussection;
#X obj 680 911 list prepend send;
#X obj 680 939 list trim;
#X obj 680 883 oscformat /d3/showcontrol/nextsection;
#X obj 930 911 list prepend send;
#X obj 930 939 list trim;
#X obj 930 883 oscformat /d3/showcontrol/stop;
#X obj 1130 911 list prepend send;
#X obj 1130 939 list trim;
#X obj 1130 883 oscformat /d3/showcontrol/playsection;
#X obj 400 855 bang;
#X obj 680 855 bang;
#X obj 930 855 bang;
#X obj 1130 855 bang;
#X obj -123 41 ctlin 8;
#X obj 46 40 ctlin 9;
#X obj 198 41 ctlin 10;
#X obj 375 41 ctlin 11;
#X obj 546 41 ctlin 12;
#X obj 714 41 ctlin 13;
#X obj 908 41 ctlin 14;
#X obj 1094 41 ctlin 15;
#X obj 400 827 ctlin 16;
#X obj 680 827 ctlin 17;
#X obj 930 827 ctlin 18;
#X obj 1130 827 ctlin 19;
#X connect 0 0 74 0;
#X connect 2 0 3 0;
#X connect 3 0 5 0;
#X connect 4 0 77 0;
#X connect 5 0 4 0;
#X connect 6 0 7 0;
#X connect 7 0 9 0;
#X connect 8 0 80 0;
#X connect 9 0 8 0;
#X connect 10 0 11 0;
#X connect 11 0 13 0;
#X connect 12 0 83 0;
#X connect 13 0 12 0;
#X connect 14 0 15 0;
#X connect 15 0 17 0;
#X connect 16 0 94 0;
#X connect 17 0 16 0;
#X connect 18 0 19 0;
#X connect 19 0 21 0;
#X connect 20 0 95 0;
#X connect 21 0 20 0;
#X connect 22 0 23 0;
#X connect 23 0 25 0;
#X connect 24 0 96 0;
#X connect 25 0 24 0;
#X connect 26 0 27 0;
#X connect 27 0 29 0;
#X connect 28 0 97 0;
#X connect 29 0 28 0;
#X connect 30 0 31 0;
#X connect 31 0 33 0;
#X connect 32 0 98 0;
#X connect 33 0 32 0;
#X connect 34 0 2 0;
#X connect 35 0 6 0;
#X connect 36 0 10 0;
#X connect 37 0 14 0;
#X connect 38 0 18 0;
#X connect 39 0 22 0;
#X connect 40 0 26 0;
#X connect 41 0 30 0;
#X connect 42 0 43 0;
#X connect 43 0 45 0;
#X connect 44 0 115 0;
#X connect 45 0 44 0;
#X connect 46 0 47 0;
#X connect 47 0 49 0;
#X connect 48 0 116 0;
#X connect 49 0 48 0;
#X connect 50 0 51 0;
#X connect 51 0 53 0;
#X connect 52 0 117 0;
#X connect 53 0 52 0;
#X connect 54 0 55 0;
#X connect 55 0 57 0;
#X connect 56 0 118 0;
#X connect 57 0 56 0;
#X connect 58 0 59 0;
#X connect 59 0 61 0;
#X connect 60 0 119 0;
#X connect 61 0 60 0;
#X connect 62 0 63 0;
#X connect 63 0 65 0;
#X connect 64 0 120 0;
#X connect 65 0 64 0;
#X connect 66 0 67 0;
#X connect 67 0 69 0;
#X connect 68 0 121 0;
#X connect 69 0 68 0;
#X connect 70 0 71 0;
#X connect 71 0 73 0;
#X connect 72 0 122 0;
#X connect 73 0 72 0;
#X connect 75 0 76 0;
#X connect 76 0 74 0;
#X connect 77 0 75 0;
#X connect 78 0 79 0;
#X connect 79 0 74 0;
#X connect 80 0 78 0;
#X connect 81 0 82 0;
#X connect 82 0 74 0;
#X connect 83 0 81 0;
#X connect 84 0 85 0;
#X connect 85 0 74 0;
#X connect 86 0 87 0;
#X connect 87 0 74 0;
#X connect 88 0 89 0;
#X connect 89 0 74 0;
#X connect 90 0 91 0;
#X connect 91 0 74 0;
#X connect 92 0 93 0;
#X connect 93 0 74 0;
#X connect 94 0 84 0;
#X connect 95 0 86 0;
#X connect 96 0 88 0;
#X connect 97 0 90 0;
#X connect 98 0 92 0;
#X connect 99 0 100 0;
#X connect 100 0 74 0;
#X connect 101 0 102 0;
#X connect 102 0 74 0;
#X connect 103 0 104 0;
#X connect 104 0 74 0;
#X connect 105 0 106 0;
#X connect 106 0 74 0;
#X connect 107 0 108 0;
#X connect 108 0 74 0;
#X connect 109 0 110 0;
#X connect 110 0 74 0;
#X connect 111 0 112 0;
#X connect 112 0 74 0;
#X connect 113 0 114 0;
#X connect 114 0 74 0;
#X connect 115 0 99 0;
#X connect 116 0 101 0;
#X connect 117 0 103 0;
#X connect 118 0 105 0;
#X connect 119 0 107 0;
#X connect 120 0 109 0;
#X connect 121 0 111 0;
#X connect 122 0 113 0;
#X connect 123 0 74 0;
#X connect 124 1 123 0;
#X connect 125 1 0 0;
#X connect 126 0 127 0;
#X connect 127 0 74 0;
#X connect 128 0 126 0;
#X connect 129 0 130 0;
#X connect 130 0 74 0;
#X connect 131 0 129 0;
#X connect 132 0 133 0;
#X connect 133 0 74 0;
#X connect 134 0 132 0;
#X connect 135 0 136 0;
#X connect 136 0 74 0;
#X connect 137 0 135 0;
#X connect 138 0 128 0;
#X connect 139 0 131 0;
#X connect 140 0 134 0;
#X connect 141 0 137 0;
#X connect 142 0 42 0;
#X connect 143 0 46 0;
#X connect 144 0 50 0;
#X connect 145 0 54 0;
#X connect 146 0 58 0;
#X connect 147 0 62 0;
#X connect 148 0 66 0;
#X connect 149 0 70 0;
#X connect 150 0 138 0;
#X connect 151 0 139 0;
#X connect 152 0 140 0;
#X connect 153 0 141 0;
